<svg xmlns="http://www.w3.org/2000/svg" width="1000" height="1000"><path d="M104.108 6.784C57.523 14.659 19.2 48.68 4.736 95L.833 107.5v790L4.736 910C17.575 951.115 48.885 982.425 90 995.264l12.5 3.903h795l12.5-3.903c16.655-5.201 32.06-13.479 43.812-23.545 20.813-17.826 33.77-37.119 41.452-61.719l3.903-12.5v-790L995.264 95c-12.726-40.755-43.933-72.161-84.41-84.948L897.5 5.833 505 5.599c-215.875-.128-396.276.405-400.892 1.185M475 262.5V470H50V296.894c0-109.982.616-176.379 1.69-182.083 5.075-26.959 30.375-52.826 56.719-57.99 4.083-.801 88.237-1.538 187.008-1.638L475 55v207.5M890.189 56.69c13.687 2.576 26.259 9.529 37.426 20.695 11.166 11.167 18.119 23.739 20.695 37.426 2.334 12.397 2.334 762.981 0 775.378-4.981 26.46-27.584 50.385-54.077 57.24-8.652 2.239-33.107 2.571-189.583 2.571H525V55h178.106c113.361 0 181.369.614 187.083 1.69M475 735v215H295.35c-156.476 0-180.931-.332-189.583-2.571-26.493-6.855-49.096-30.78-54.077-57.24C50.613 884.47 50 815.657 50 700.606V520h425v215" fill-rule="evenodd"/></svg>