<svg xmlns="http://www.w3.org/2000/svg" width="1000" height="1000"><path d="M104.108 6.784C57.523 14.659 19.2 48.68 4.736 95L.833 107.5v790L4.736 910C17.575 951.115 48.885 982.425 90 995.264l12.5 3.903h795l12.5-3.903c16.655-5.201 32.06-13.479 43.812-23.545 20.813-17.826 33.77-37.119 41.452-61.719l3.903-12.5v-790L995.264 95c-12.726-40.755-43.933-72.161-84.41-84.948L897.5 5.833 505 5.599c-215.875-.128-396.276.405-400.892 1.185M890.189 56.69c13.687 2.576 26.259 9.529 37.426 20.695 11.166 11.167 18.119 23.739 20.695 37.426.93 4.937 1.69 31.75 1.69 59.583V225H50v-50.606c0-27.833.76-54.646 1.69-59.583 5.075-26.959 30.375-52.826 56.719-57.99 10.822-2.122 770.531-2.249 781.78-.131M950 372.5V470H50V275h900v97.5m0 250V725H50V520h900v102.5m0 205.606c0 29.208-.76 57.146-1.69 62.083-4.981 26.46-27.584 50.385-54.077 57.24C885.422 949.71 840.884 950 500 950s-385.422-.29-394.233-2.571c-26.493-6.855-49.096-30.78-54.077-57.24-.93-4.937-1.69-32.875-1.69-62.083V775h900v53.106" fill-rule="evenodd"/></svg>