<svg xmlns="http://www.w3.org/2000/svg" width="1000" height="1000"><path d="M36.321 2.329C21.197 6.415 9.083 17.798 3.098 33.548.106 41.425 0 57.317 0 499.955v458.253l3.477 9.294c4.64 12.402 16.619 24.381 29.021 29.021l9.294 3.477h916.416l9.294-3.477c6.05-2.264 12.129-6.313 17.419-11.602 5.289-5.29 9.338-11.369 11.602-17.419l3.477-9.294V41.792l-3.435-9.181c-4.177-11.163-15.294-23.106-26.199-28.144L962.5.833 503.333.522C136.264.272 42.593.635 36.321 2.329M950 95v45H765v720h185v90H50v-90h185V140H50V50h900v45M265 500v360h470V140H265v360m-50 0v340H50V160h165v340m500 0v340H285V160h430v340m235 0v340H785V160h165v340" fill-rule="evenodd"/></svg>