<svg xmlns="http://www.w3.org/2000/svg" width="1000" height="1000"><path d="M104.108 6.784C57.523 14.659 19.2 48.68 4.736 95L.833 107.5v790L4.736 910C17.575 951.115 48.885 982.425 90 995.264l12.5 3.903h795l12.5-3.903c16.655-5.201 32.06-13.479 43.812-23.545 20.813-17.826 33.77-37.119 41.452-61.719l3.903-12.5v-790L995.264 95c-12.726-40.755-43.933-72.161-84.41-84.948L897.5 5.833 505 5.599c-215.875-.128-396.276.405-400.892 1.185M225 502.5V950h-54.65c-43.839 0-56.615-.508-64.583-2.571-26.493-6.855-49.096-30.78-54.077-57.24-2.334-12.397-2.334-762.981 0-775.378 5.075-26.959 30.375-52.826 56.719-57.99 4.083-.801 31.987-1.538 62.008-1.638L225 55v447.5m500 0V950H275V55h450v447.5M890.189 56.69c13.687 2.576 26.259 9.529 37.426 20.695 11.166 11.167 18.119 23.739 20.695 37.426 1.011 5.372 1.69 45.36 1.69 99.583V305H775V55h53.106c29.208 0 57.146.76 62.083 1.69M950 495v140H775V355h175v140m0 288.106c0 59.292-.669 101.657-1.69 107.083-4.981 26.46-27.584 50.385-54.077 57.24-7.968 2.063-20.744 2.571-64.583 2.571H775V685h175v98.106" fill-rule="evenodd"/></svg>